<svg height="380pt" viewBox="-69 0 380 380.00027" width="380pt" xmlns="http://www.w3.org/2000/svg"><path d="m219.871094 282.121094v40.847656h-195.832032v-41.046875c0-10.535156 4.867188-20.476563 13.191407-26.933594l83.769531-64.988281 85.429688 64.988281c8.46875 6.449219 13.441406 16.484375 13.441406 27.132813zm0 0" fill="#e48e66"/><path d="m218.921875 57.820312v37.480469c0 10.355469-4.710937 20.152344-12.800781 26.621094l-85.121094 68.078125-85.121094-68.078125c-8.089844-6.46875-12.796875-16.265625-12.796875-26.621094v-38.269531h195.839844zm0 0" fill="#e48e66"/><g fill="#f8ec7d"><path d="m233.179688 323h-224.359376c-4.761718-.039062-8.679687 3.730469-8.820312 8.488281v39.992188c.136719 4.761719 4.054688 8.546875 8.820312 8.519531h224.359376c4.765624.027344 8.683593-3.757812 8.820312-8.519531v-39.992188c-.140625-4.757812-4.058594-8.527343-8.820312-8.488281zm0 0"/><path d="m233.179688 0h-224.359376c-4.765624-.0273438-8.683593 3.757812-8.820312 8.519531v39.992188c.140625 4.757812 4.058594 8.527343 8.820312 8.488281h224.359376c4.761718.039062 8.679687-3.730469 8.820312-8.488281v-39.992188c-.136719-4.761719-4.054688-8.5468748-8.820312-8.519531zm0 0"/></g></svg>